<?xml version="1.0" encoding="UTF-8"?>
<svg id="Capa_2" data-name="Capa 2" xmlns="http://www.w3.org/2000/svg" viewBox="0 0 50.93 45.1">
  <g id="Capa_1-2" data-name="Capa 1">
    <g>
      <path d="M22.53,14.21l.17.23L6.34,44.78c7.1-.14,14.19-.14,21.28,0l.74.19c.1-.42.65-.3.51.13-9.26,0-18.53,0-27.79,0-.53,0-.77-.41-1.07-.76v-.89c5.95-10.71,11.73-21.52,17.6-32.28l.31-.06,1.78,2.05c.66.76,1.56,1.18,2.56.87l.29.18Z" style="fill: #595a67;"/>
      <path d="M40.38,22.18l-.26.13c-.19-.22-.96-.08-1.05.09-3.66,7-7.29,14.03-10.89,21.06-.22.43-.03.89.28,1.23l-.1.27c-7.42-.26-14.98.19-22.41,0L22.53,14.21c-.23-.29-.07-.42.25-.25.99-1.85,2.68-3.06,4.55-1.47,1.12,1.39,2.39,2.43,3.96.88l1.64-1.98c.33-.51.66-.71.98-.59,2.18,3.78,4.34,7.58,6.46,11.39Z" style="fill: #42434d;"/>
      <path d="M41.67,24.09c3.04,6.38,6.02,12.78,9.14,19.11.29.79.03,1.65-.79,1.77-8.15.17-16.8.16-24.96,0,2.9-6.77,5.99-13.44,9.39-19.92.37-.57,1.09-.13,1.53.19,1.07,1.15,2.37,2.32,3.75.88l1.57-2.21c.11-.12.23-.07.36.17Z" style="fill: #42434d;"/>
      <path d="M40.38,22.18c.62.45,1.09,2.03,1.65,2.66.51.15.11,1.14-.38,1.14-2.78,6.18-6.56,12.18-9.43,18.36-.32.57-.26.6-.95.76-.8,0-1.61,0-2.41,0-.15-.16-.32-.12-.51-.13-.43-.47-.69-.96-.41-1.61,3.67-7.02,7.18-14.14,10.92-21.1.5-.37.98-.45,1.51-.07Z" style="fill: #2d2d34;"/>
      <path d="M26.33.03c.4.08,2,1.09,2.24,1.43.12.17.34.84.42.98.63,1.24-.27,2.48-1.33,3.14-1.38,2.31-2.68,4.66-3.92,7.05l-.95,1.33c-.07.09-.19.16-.25.25-2.59.87-3.36-1.67-4.94-3.04,1.41-2.59,2.8-5.09,4.21-7.63.5-.9.94-2.21,1.78-2.84.07-.05,1.4-.66,1.48-.67.41.09.85.09,1.27,0Z" style="fill: #e9f4fa;"/>
      <path d="M28.99,2.44c1.68,2.82,3.32,5.55,4.94,8.36-1.13.76-2.3,3.24-3.64,3.52-2.41.5-2.62-2.05-4.27-2.25-.55-.07-1.04,0-1.53.25-.41.22-1.39,1.26-1.71,1.65,1.48-2.89,2.98-5.79,4.68-8.54,1.08-.68,1.69-1.67,1.52-2.98Z" style="fill: #d8eef7;"/>
      <path d="M26.33.03c-.28.22-1.01.21-1.27,0,.22-.04,1.06-.04,1.27,0Z" style="fill: #cbd9df;"/>
    </g>
  </g>
</svg>