<?xml version="1.0" encoding="UTF-8"?>
<svg id="Capa_2" data-name="Capa 2" xmlns="http://www.w3.org/2000/svg" viewBox="0 0 70.75 92.97">
  <g id="Capa_1-2" data-name="Capa 1">
    <path d="M25.01,2.92c.09-1.52,1.75-2.61,2.67-2.82,1.39-.32,3.18.14,4.23,1.6.46.64.68,2.38.9,3.26.41,1.67.93,3.51,1.32,5.19.06.28.1,1.29.2,1.32.3-.1,2.05.11,2.12-.01.03-.06-.04-.41,0-.58.54-2.18,1.12-4.46,1.69-6.64.16-.61.2-1.49.5-2.09,1.11-2.24,3.92-2.61,5.54-1.59.62.39,1.05.92,1.4,1.68.06.12.19.14.23.28.21.71.16,1.94.02,2.68-.34,1.74-.95,3.61-1.34,5.31-.04.18-.17,1.07-.13,1.13l2.48.52c1.93-2.75,3.89-5.37,5.77-8.15,1.73-2.01,4.66-2.1,6.34.12.38.5.45.75.5,1.51.24.17.21,1.21,0,1.45-.02.3-.02.5-.12.78-.09.24-1.64,2.46-1.92,2.86-1.13,1.61-2.48,3.54-3.65,5.08-.22.29-.69.29-.44.73.42.74,1.17,1.49,1.59,2.24.11.2.44.82.53,1.02l.3.04c.26,1.11.6,2.06,1,2.87,2.73-1.26,5.61-2.66,8.28-4.16.37-.21-.65-1.47-1.03-1.08-1.26.64-2.52,1.23-3.8,1.78-.53.02-1.9-.07-1.58-1.08-.01-.05,0-.12,0-.18-.21-.12-.17-.56,0-.73.03-.06.01-.3.13-.44.61-.72,4.22-2.38,5.05-2.46,1.03-.1,2.79.44,3.56,1.5.25.35.41,1.19.53,1.62.04.15.21.14.23.27.16,1.01-.15.99-.23,1.28-.34,1.3-.57,1.6-1.47,2.31l-9.86,4.81v3.45h4.57c.99,0,3.24,1.51,3.71,2.86.03.09.37,1.32.38,1.39.32,3.78-.26,8.61-.01,12.5-.37.27-.22.82-.41,1.33-.45,1.27-2.73,2.79-3.67,2.79h-4.57v3.99s.21-.07.25.12c.17.99,0,2.34.49,3.37l2.27,4.69c.42.56,4.03,1.01,4.93,1.31,2.03.67,4.98,2.85,5.81,5.72.09.32.11,1.08.13,1.13.08.2.16.38.24.54.26,5.99-.19,12.36,0,18.39-.36.2-.26.69-.41.98-.27.51-.78.91-1.14,1.3l-1.87.94H3.21c-.79-.58-1.56-.73-2.28-1.57-.43-.51-.44-.73-.65-1.37-.04-.14-.21-.14-.23-.27-.07-.45-.07-4.9,0-5.37,0-.05.45-.65.53-.69.26-.16.53-.16.81-.16.54-1.05,1.84.55,1.75,1.68-.13,1.43-.1,2.79.09,4.07.46.22.72.54.77.97l.11-.36h8.93l.15.36c-.09-.02-.24-.06-.24-.16-.08-1.16-.11-4.45,0-5.56l.24-.26c.04-.8.79-1.25,1.28-1.28.42-.03,1.62.33,1.52,1.1.1.04.24.1.24.21.05,1.01.12,4.9,0,5.7l-.24.27.12-.36h38.45l.15.36c-.1-.04-.23-.1-.24-.21-.09-1.24-.1-4.47,0-5.7l.24-.27c-.17-.51.52-.84.8-.95.76-.29,1.76-.15,2,1.13.09.02.23.06.24.16.11,1.02.07,4.45,0,5.56l-.24.26c2.04-.6,4.28-.54,6.33,0l.37-.36h1.55c.75.09,1.36-.18,1.81-.81l.04-17.24c-.64-3.81-3.5-4.98-5.8-5.28.17.15.25.28.2.63.52.65,2,3.12,2.1,3.96,0,.07,0,.14-.03.21.58.56,1.02,1.42,1.31,2.59.46,1.2.92,2.46,1.26,3.64.11,1.59-1.66,2.52-2.21,1.39-.45.59-.81-.23-.92-.87-.69-1.52-1.31-3.09-1.86-4.7l-1.96.41c-.02,1.02.15,2.06.49,3.14.26.86.26,1.53,0,2.02.2.18.18.53,0,.73.5.79-.72,1.46-1.24,1.44-1.07-.05-1.7-.86-1.68-2.48-.39-1.31-.71-2.7-.76-4.04l-2.62.43c.1.09.18.21.21.38.13.68.25,2.6-.11,3,.1.35.18.65.24.91.5.09-.14,1.54-.32,1.75-.6.71-2.13.45-2.55-.6-.22-.54-.52-2.33-.05-2.61-.09-.35-.17-.66-.24-.91-.24-.2-.34-.68-.31-1.43-.1-.1-2.36.25-2.41.43-.04.15-.09,2.99.27,3.07.2,1.32-.36,2.44-1.2,2.74-2.23.8-2.32-2.58-2.17-4.86-.19-.11-.29-.35-.31-.73l-2.49.26-.15-.39c.1.03.21.08.24.21.05.19.03,3.73,0,4.15l-.24.26c.51.79-.92,1.38-1.41,1.35-.37-.03-1.6-.7-1.27-1.35-.06-.01-.12-.03-.16-.08-.12-.15-.11-3.6-.08-4.1l.24-.26c-.03.14-.06.35-.14.36-.3.07-2.23.08-2.48,0l-.18-.36c.09.04.23.09.24.21.07.58.06,3.55,0,4.15l-.24.26c.51.99-.79,1.28-1.35,1.24s-1.85-.49-1.33-1.42c-.09-.04-.23-.1-.24-.21-.05-.55-.06-3.48,0-3.98l.24-.26c-.03.14-.06.35-.14.36-.3.07-2.23.08-2.48,0l-.18-.36c.09.02.22.05.24.16.04.21.03,3.31,0,3.67l-.24.26c.4.23.12.71-.15,1.05-.91,1.19-2.89.62-2.78-1.14-.09-.04-.23-.1-.24-.21-.04-.44-.05-3.34,0-3.7l.24-.26c-.05.09-.09.18-.15.25-.21.25-2.25.05-2.53-.43-.06.19-.14.43-.24.73.28,1.12.24,2.74.1,3.96-.15,1.33-2.44,1.68-3.1.5-.32-.58-.15-3.8-.05-4.63l.25-.19c.15-.21.15-.45,0-.73-.07.09-.15.17-.23.23-.44.31-2.01-.16-2.57-.37.2.82.17,2.37-.24,3.05-.07.24-.15.55-.24.91.36,0,.26.97.11,1.28-.57,1.11-2.29,1.14-2.87-.04-.29-.59-.24-3.19.2-3.6.07-.25.15-.55.24-.91-.22-.23-.3-.59-.25-1.07l-2.43-.4c-.39,1.93-.78,3.85-1.18,5.77-2.99,2.39-3.51-1.51-2.23-4.89.04-.24.15-1.55.12-1.62-.06-.14-2.06-.68-2.12-.16-.51,1.57-1.06,3.09-1.65,4.58-1.23,2.36-3.87.9-3-1.58,1.27-3.27,2.66-6.68,4.22-9.79.07-.14.17-.25.27-.36s.22-.2.34-.29c.41-.18-.15-.12-.37,0l-.18.37c-1.85.06-5.4,2.03-5.54,5.21,0,2.32,0,4.65-.05,6.97-.34.8-1.11,1.9-1.66,1.07-.47,0-.99-.42-1.34-.85.08-2.52-.1-5.18,0-7.68.07-.17.15-.35.24-.54.33-3.64,3.69-6.1,5.94-6.85.93-.31,4.47-.7,4.93-1.31,1.08-2.59,2.94-4.8,2.76-8.06.03-.19.25-.1.25-.12v-3.99h-4.57c-.93,0-3.22-1.52-3.67-2.79-.18-.51-.03-1.07-.41-1.33.24-3.89-.34-8.72-.01-12.5,0-.08.35-1.31.38-1.39.47-1.38,2.7-2.86,3.71-2.86h4.57v-3.45l-9.86-4.81c-.28-.19-1.21-1.14-1.34-1.49-.1-.28-.07-.58-.13-.82-.04-.15-.21-.14-.23-.27-.04-.25-.04-.94,0-1.2.02-.13.19-.13.23-.27.35-1.1.57-1.68,1.41-2.22,1.18-.76,2.47-.92,3.72-.45l7.79,3.84c.33.06,1.4-1.51,1.63-1.93.25-.44-.22-.43-.44-.73-1.18-1.54-2.53-3.47-3.65-5.08-.28-.4-1.83-2.62-1.92-2.86-.1-.28-.1-.48-.12-.78-.24-.17-.21-1.21,0-1.45.14-2.24,2.41-3.17,3.71-3.17,2.83,0,4.13,3.14,6,5.71.71.98,1.51,1.97,2.25,2.9.14.18.44.82.55.91.26.21,2.63-.21,2.71-.36.19-.35-.21-.58-.23-.68-.1-.42-.06-.98-.14-1.36-.34-1.55-1.01-3.1-1.09-4.86-.22-.4-.24-1.5,0-1.82Z" style="fill: #010101;"/>
    <path d="M8.81,66.28c.13-.11.25-.15.37,0-.41.85-.81,1.73-1.22,2.59-1.22,2.54-2.36,5.15-3.29,8-.04.11-.22.1-.24.25-.21,1.33.68,2.14,1.51,2.05.42-.05,1.05-.73,1.29-1.21.59-1.18,1.01-3.16,1.58-4.46.06-.13.25-.3.32-.5l2.23.56c.05.07-.08,1.83-.12,2.04-.13.65-.47,1.78-.59,2.45-.14.75-.25,1.9.28,2.33.59.48,1.33.53,1.93.02.35-.3.22-.49.35-.89.33-1.01.18-1.3.36-2.19.14-.69.42-1.76.6-2.45.04-.17-.03-.53,0-.58.11-.19,2.52.52,2.92.36,0,.48.01.97,0,1.45-.07.25-.15.55-.24.91-.03.91-.17,1.98-.12,2.82.1,1.63,1.65,1.47,2.4.87.34-.27.25-.85.28-1.33.07-.25.15-.55.24-.91.03-1.1.14-2.17.12-3.27.97.08,1.95.32,2.92.36.2.24.21.5,0,.73,0,1.19-.3,3.56-.04,4.5.29,1.07,2.34.88,2.72-.27.02-1.29.09-2.57.13-3.86.07-.2.15-.44.24-.73.92-.07,1.76.23,2.68.18v4.18s.15-.05.21.05c.09.16-.02.47.23.85.66,1,2.49.38,2.49-.8v-4.08h2.8v4.45c0,1.29,2.68,1.48,2.68.18v-4.63h2.8v4.45c0,.31,1.04.97,1.29.99.33.03,1.39-.39,1.39-.99v-4.63c.41.15,2.79-.41,2.92-.18.03.06-.04.42,0,.59.05.18.22.07.25.4.11,1.24-.29,3.64.63,4.32.45.33,1.52.38,1.89-.09.08-.1.08-.39.15-.55.06-.12.22-.11.24-.26.04-.24.04-.96,0-1.2-.02-.15-.22-.05-.25-.38-.09-.99.13-2.16-.11-3.19l2.85-.38c.2.08.18,1.51.2,1.83.09.35.17.66.24.91.03,1.12-.08,2.46.73,3,.49.33,1.27.3,1.74-.09.17-.14.12-.4.21-.6.17-.37.23.07.24-.86-.09-.34-.17-.64-.24-.91-.03-.77-.03-2.31-.12-2.97-.01-.08-.42-.23-.24-.66.08-.2,2.77-.6,3.16-.55.05.07.06,1.7.13,2.05.1.49.5,1.77.6,2.26.2,1.03-.17,1.51.82,2.01.63.31,1.03.32,1.59-.28.25-.27.2-.46.27-.59.15-.27.15-.51,0-.73-.02-1.59-.47-2.78-.72-4.13-.07-.35,0-.91-.13-1.32l2.55-.53c.04.2.02.49.09.67.55,1.39,1.14,2.77,1.74,4.18.25.59-.01.83.74,1.13l.24.17v9.64c-.13.63-.38,1.34-.85,1.45-2.11.04-4.22-.03-6.33,0v-5.99s-.14.03-.2-.07c-.47-.84-1.02-1.01-1.73-.72-.1.04-.87.53-.87.6v6.17H16v-6.17c0-.07-.78-.56-.87-.6-.72-.29-1.26-.12-1.73.72-.05.1-.2.05-.2.07v5.99H4.01c-.08,0-.86-.59-.95-.72-.53-.81.04-4.01-.25-5.04-.02-.06-.62-.81-.7-.86-.26-.14-.46-.1-.72-.1v-3.63c.17,0,.99-.3,1.07-.41.1-.13.1-.67.39-.81.1-2.23-.12-4.66,0-6.86.2-3.46,3.87-5.55,5.96-5.54Z" style="fill: #ffd15d;"/>
    <path d="M58.61,18.17c.14.66,1.22.79,1.63.71,1.01-.19,3.18-1.89,4.01-1.79.55.06,1.4.87.89,1.76-2.81,1.7-5.83,2.73-8.67,4.41-.09.02-.03-.29-.1-.47-.32-.79-.59-2.2-.93-2.98l3.17-1.63Z" style="fill: #4e63ab;"/>
    <path d="M25.01,2.92c-.03.53-.02,1.28,0,1.82-.35.29-.3-1.34-.25-1.7.03-.21.13-.1.25-.11Z" style="fill: #141419;"/>
    <path d="M59.47,5.64c.07.02.23-.03.24,0,.03.07.12,1.76-.24,1.45.03-.41.03-1.05,0-1.45Z" style="fill: #716e74;"/>
    <path d="M11.25,5.64c-.03.41-.03,1.05,0,1.45-.07-.02-.23.03-.24,0-.03-.07-.12-1.76.24-1.45Z" style="fill: #6d6a70;"/>
    <path d="M58.61,17.26c.02.23-.03.51,0,.73-.27.07-.29-.05-.25-.46s.22-.21.25-.26Z" style="fill: #a29fa4;"/>
    <path d="M.29,70.82c-.04.39.13.63-.24.54.02-.42-.11-.63.24-.54Z" style="fill: #4a484d;"/>
    <path d="M70.42,70.82c.08.15.2-.39.24.54-.33.08-.25-.12-.24-.54Z" style="fill: #4a484d;"/>
    <path d="M30.49,52.67c0,.17.07.52-.07.55h-13.57v-24.33h13.56c.13-.02.06.23.07.36-.06.21-.14.45-.24.73-.06,1.99.04,4,0,5.99h-3.41c.02-.75,1.13-2.09,1.19-2.67.19-1.84-1.61-2.09-2.38-1.21-.37.43-.96,2.77-1.58,1.84-.08-.13-.08-.42-.15-.54-.22-.35-.51-.99-.64-1.18-.61-.91-2.45-.8-2.52.6-.05.93,1.1,2.51,1.46,3.34-.57.14-1.66,1.13-1.77,1.98-.2,1.52-.15,6.07-.06,7.74.05,1.02.33,1.56.94,2.05,1.58,1.25,6.44.35,8.52.57.24.02.25.1.41.19.13,1.36.18,2.59.16,3.67l.09.32Z" style="fill: #6b7cbc;"/>
    <path d="M17.95,20.71l31.37-.09.51.18c.65,1.57.84,3.26.76,5.13-11.23.13-22.47.14-33.74.04.06-.61-.09-1.49,0-2.05.02-.14.6-2.22.69-2.44.11-.27.38-.33.4-.77Z" style="fill: #a1d9f0;"/>
    <path d="M30.49,73.18c-.01.13.05.37-.06.37-.21-.01-.4-.17-.61-.18-4.77-.32-9.49-.74-14.23-1.66-.66-.13-5.13-.96-5.31-1.25-.16-.25.44-.6.36-.95.65-1.15,1.37-2.44,1.84-3.74,5.89,1.07,11.81,2.11,17.76,2.52.03,1.39-.04,2.79,0,4.18.1.27.18.51.24.73Z" style="fill: #bbd36c;"/>
    <path d="M30.24,64.47c-.01.32.13,1.19-.18,1.09l-16.13-2.36,1.34-2.49c.65-1.26.89-2.42,1.23-3.9.03-.14.39-.29.23-.87h9.01v4.45c0,.08.48,1.26.52,1.31.96,1.34,2.96,1.79,4.23,1.69,0,.12,0,.24,0,.36-.06.21-.14.45-.24.73Z" style="fill: #5eb991;"/>
    <path d="M14.17,32.51v15.07h-4.69c-.14,0-.99-.81-1.04-1.04v-12.85c.04-.41.86-1.17,1.04-1.17h4.69Z" style="fill: #fff;"/>
    <path d="M61.23,32.51c.23.06,1,.78,1.05,1.17v12.85c-.05.23-.91,1.04-1.05,1.04h-4.69v-15.07c1.41.25,3.34-.33,4.69,0Z" style="fill: #fff;"/>
    <path d="M50.33,28.88c1.18,0,2.36,0,3.53,0v24.33c-1.09,0-2.19,0-3.29,0-.06-.16-.13-.33-.17-.51-.27-1.09-.08-5.15.04-6.51-.04.09-.08,0-.12-.25.16-2.69-.12-5.51-.12-8.17l-.12-.4c-.06-2.84.02-5.67.25-8.5Z" style="fill: #4e63ab;"/>
    <path d="M43.76,14.36c.91.13,3.7,1.94,3.97,3.06.03.12.04.25.05.39-9.25.06-18.51-.04-27.76,0l2.22-1.87c1.47-.78,2.99-1.28,4.54-1.58,5.58.36,11.44-.49,16.98,0Z" style="fill: #ee76a7;"/>
    <path d="M55.08,66.65c.31-.05.58.22.81.83l.85,2.28c.5.58.64,1.06.41,1.43-3.94.87-7.99,1.63-11.99,2-1.58.14-3.19.05-4.75.37-.2-.14.06-.55.06-.64v-4.45c4.89-.26,9.77-.82,14.61-1.82Z" style="fill: #bbd36c;"/>
    <path d="M45.1,56.12c1.93-.05,3.87-.06,5.8-.04.31,2.34,1.81,5.23,2.88,7.06.52.48.37.76-.15.97-4.36.95-8.75,1.32-13.15,1.63l-.12-2.36c1.36.12,3.52-.38,4.38-2.13.08-.16.07-.44.13-.64.05-.16.22-.08.24-.4.05-.63-.11-3.95,0-4.1Z" style="fill: #5eb991;"/>
    <path d="M62.02,67.19c-.37-.33-.41-.32-.61-1-.05-.24,2.82.61,3.05.72,1.39.66,3.24,2.68,3.4,4.91l-.05,17.35c-.27,1.45-3.15,1.06-3.97,1.07l.62-1.35v-9.9c.9.36,2.36-.1,1.86-1.96-.05-.19-.22-.2-.27-.36-.61-1.8-1.18-3.64-1.96-5.31-.27-1.56-1.28-3.05-2.07-4.18Z" style="fill: #fcc246;"/>
    <path d="M35.24,28.88c.49,0,1.74-.12,2.1.18.09.07.31.79.46.99v22.12c-.7,1.35-1.53,1.06-2.57,1.04l-.24-.13v-23.98l.24-.22Z" style="fill: #ea5993;"/>
    <path d="M35.24,28.88v24.33c-1.11-.03-2.1.35-2.2-1.72-.32-6.93.24-14.43.02-21.42.23-1.51,1.35-1.17,2.18-1.19Z" style="fill: #ee76a7;"/>
    <path d="M29.39,56.12c3.62-.29,7.22-.29,10.81,0,.19.74.28,4.04-.07,4.48-3.55.21-7.2.08-10.74-.12-1.25.1-1.06-1.98-.98-3.38.04-.74.54-.92.98-.98Z" style="fill: #ffe178;"/>
    <path d="M50.33,45.95c.37-.1.24.28.24.63.05,2.21-.04,4.43,0,6.63-3.41.02-6.82-.01-10.23,0,.19-1.55.11-3.14.12-4.72h7.98c.16,0,1.11-.7,1.3-.91.41-.45.54-.89.58-1.63Z" style="fill: #6b7cbc;"/>
    <path d="M50.33,28.88c0,2.76,0,5.52,0,8.28,0,.33-.13.58-.13.61-.46-.74-1.01-1.45-1.7-1.64l.97-1.77c0-.43.31-.58.37-.72.72-1.9-1.5-2.67-2.35-1.52-.24.33-.76,1.98-1.11,2.01-.49.04-.92-1.8-1.44-2.22-.55-.44-1.22-.42-1.76,0-1.13.87-.07,2.14.46,3.08l.36.95h-3.53l-.12-7.08c3.33,0,6.66-.01,9.98,0Z" style="fill: #6b7cbc;"/>
    <path d="M40.47,38.87l5.12-.05c.04.06.08.11.12.17.15.24.03,5.77,0,6.56l-.24.21c-1.66.02-3.33-.01-4.99,0v-6.9Z" style="fill: #ffe178;"/>
    <path d="M23.06,38.87l5.12-.05c.04.06.08.11.12.17.15.24.03,5.77,0,6.56l-.24.21c-1.66.02-3.33-.01-4.99,0v-6.9Z" style="fill: #ffe178;"/>
    <path d="M17.95,20.71l34.74-.19c.41,1,.97,1.89.94,3.14.48.43.14,1.7.24,2.5l-37.01-.18h33.48c.08-.12-.05-2.9-.13-3.32-.03-.14-.19-.13-.23-.27-.16-.66-.09-1.33-.68-1.68h-31.36Z" style="fill: #76cbeb;"/>
    <path d="M45.1,56.12l8.89-.18c-.15.6.2.72.24.86.16.74.25,1.52.5,2.26l2.06,4.31c-1.06.18-2.11.5-3.17.73.59-.51.09-.48,0-.67-.71-1.49-2.68-5.13-2.92-6.54-.04-.22.03-.73,0-.78-.19-.31-4.9.24-5.6,0Z" style="fill: #2fae7e;"/>
    <path d="M35.24,63.38c.49,0,1.74-.12,2.1.18.04.03.46.93.46.99.19,2.44-.16,5.46-.01,7.96-.3.15-.28.71-.45.86-.36.3-1.62.19-2.1.18l-.24-.17v-9.78l.24-.22Z" style="fill: #ea5993;"/>
    <path d="M35.24,63.38v10.17c-1.15-.02-2.11.38-2.2-1.72-.06-1.47-.15-6.36.06-7.56.19-1.11,1.57-.88,2.14-.89Z" style="fill: #ee76a7;"/>
    <path d="M15.96,5.71c.35.34.98,1.6,1.35,2.12.83,1.14,1.79,2.28,2.61,3.45.34.49.89,1.24,1.18,1.75.09.16.23.14.08.44-.08.16-1.44.87-1.7,1.06l-2.11-3.07c-.75-.94-1.59-1.96-2.3-2.98-.23-.33-1.21-1.75-1.23-2.03-.08-1.52,1.49-1.35,2.12-.73Z" style="fill: #6b7cbc;"/>
    <path d="M56.77,5.67c.47,1.13-.83,2.13-1.23,2.7-1.43,2.06-2.85,4.15-4.3,6.17l-1.76-1.09c-.05-.31.05-.29.14-.43,1.04-1.68,2.3-3.12,3.42-4.65.76-1.04,1.71-3.2,2.83-3.1.14.01.87.32.9.4Z" style="fill: #fed05d;"/>
    <path d="M14.65,20.91c.23.39-.37,1.9-.42,2.35l-8.63-4.34c-.56-1.23.44-1.89,1.17-1.8l7.88,3.79Z" style="fill: #ffe178;"/>
    <path d="M29.45,11.64c-.45-.11-.31-1.08-.44-1.67-.35-1.63-.96-3.36-1.32-5.01-.41-1.9.54-2.8,1.61-2,.57.43.43,1.22.58,1.82.04.15.19.14.22.28.49,2.01.78,4.05,1.23,6.08.05.22.34,0,.24.49-.65-.12-1.51.16-2.13,0Z" style="fill: #bbd36c;"/>
    <path d="M39.25,11.64c.09-.34.06-.83.13-1.13.04-.15.19-.14.22-.28.49-2.09.8-4.45,1.46-6.35.07-.21.05-.56.16-.73.25-.4,1.26-.51,1.6-.19.22.2.15.66.45.8l-1.89,7.88h-2.13Z" style="fill: #5eb991;"/>
    <path d="M55.08,66.65s.09-.14.2-.16c.96-.2,1.92-.42,2.89-.53.74,1.26,1.43,2.64,2.02,4.02.44.29.35.44-.09.61-.94.38-1.99.39-2.95.6-.03-.44-.49-.95-.61-1.22-.27-.59-.59-1.69-.85-2.29-.1-.23-.47-.79-.61-1.03Z" style="fill: #a4c731;"/>
    <path d="M40.47,38.87l7.18-.18v7.08c-.73,0-1.46,0-2.19,0v-6.9s-4.99,0-4.99,0Z" style="fill: #fed15d;"/>
    <path d="M23.06,38.87l7.18-.18v7.08c-.73,0-1.46,0-2.19,0v-6.9s-4.99,0-4.99,0Z" style="fill: #fed15d;"/>
    <path d="M29.39,56.12c.13-.3.46-.18.67-.18,3.35-.05,7.86-.48,11.08,0,.88.13,1.11.28,1.16,1.54.07,1.76.28,2.94-1.05,3.17-3.12.54-7.91.08-11.19.02-.21,0-.54.12-.67-.18h10.52c.28-.1.28-4.25,0-4.37h-10.52Z" style="fill: #fed05d;"/>
    <path d="M43.76,14.36c1.03.09,2.26.44,3.26.86,1.3.54,2.62,1.44,3.68,2.59-.97,0-1.95,0-2.92,0-1.17-1.54-2.58-2.58-4.02-3.45Z" style="fill: #eb5993;"/>
    <path d="M62.02,67.19c1.11.99,1.24,1.07,1.84,2.76.1.3.62.83.23,1.42-.17-.36-.28-.76-.61-1.05l-1.46-3.13Z" style="fill: #fbcd5b;"/>
    <path d="M30.24,48.67c.06.04.22-.11.25.11-.06,1.27.06,2.63,0,3.88-.37.1-.24-.28-.24-.63-.03-1.12.02-2.25,0-3.37Z" style="fill: #2f365b;"/>
    <path d="M17.09,76.09c-.01.49.13,1.05-.24.91.01-.49-.13-1.04.24-.91Z" style="fill: #a98b3c;"/>
    <path d="M51.06,76.99c.38-.14.23.42.24.91-.38.14-.23-.42-.24-.91Z" style="fill: #866e30;"/>
    <path d="M19.65,78.45c-.01.49.13,1.04-.24.91.03-.48-.15-1.04.24-.91Z" style="fill: #a98a3c;"/>
    <path d="M53.99,78.45c.36-.15.25.43.24.91-.38.14-.23-.42-.24-.91Z" style="fill: #a88a3c;"/>
    <path d="M60.2,78.99c.27-.07.29.05.25.46s-.22.21-.25.26c0-.24,0-.48,0-.73Z" style="fill: #9f8238;"/>
    <path d="M22.69,75.54c.43.02.36.83,0,.73,0-.24,0-.48,0-.73Z" style="fill: #5e4d22;"/>
    <path d="M25.74,75.91c-.02.46.12.84-.24.73,0-.24,0-.49,0-.73.08,0,.16,0,.24,0Z" style="fill: #b89741;"/>
    <path d="M30.49,29.25c.04.43.07.86-.24.73.01-.46-.12-.84.24-.73Z" style="fill: #394270;"/>
    <path d="M30.49,63.74c.02.45.09.85-.24.73.02-.46-.12-.84.24-.73Z" style="fill: #2f634d;"/>
    <path d="M30.24,72.46c.31-.13.28.3.24.73-.36.11-.23-.27-.24-.73Z" style="fill: #5f7837;"/>
    <path d="M8.81,66.28c.11-.3.42-.16.61-.18v.18s-.24,0-.24,0c-.12,0-.24,0-.37,0Z" style="fill: #9f8238;"/>
  </g>
</svg>